<svg id="Слой_1" data-name="Слой 1" xmlns="http://www.w3.org/2000/svg" viewBox="0 0 477.23 85.24"><defs><style>.cls-1{fill:#009ba9;}.cls-2{fill:#5d2589;}.cls-3{fill:#562980;}</style></defs><title>лого УТВЕРЖДЁН НА СДАЧУ</title><path class="cls-1" d="M210.05,270.84a32,32,0,0,1,21.79,22h12.54a44,44,0,0,0-34.33-34.59Z" transform="translate(-161.38 -257.38)"/><path class="cls-1" d="M173.68,292.79v-20a3.07,3.07,0,0,1,3.07-3.08h20V257.38H164.46a3.08,3.08,0,0,0-3.08,3.07v32.34Z" transform="translate(-161.38 -257.38)"/><path class="cls-1" d="M196.71,328a32.09,32.09,0,0,1-21.89-22H162.18a44.2,44.2,0,0,0,34.53,34.6Z" transform="translate(-161.38 -257.38)"/><path class="cls-1" d="M233,306v20.06a3.08,3.08,0,0,1-3.07,3.07H210.05v12.29h32.16a3.06,3.06,0,0,0,3.07-3.07V306Z" transform="translate(-161.38 -257.38)"/><path class="cls-2" d="M203.33,281.11a18.31,18.31,0,1,0,18.31,18.31A18.31,18.31,0,0,0,203.33,281.11Zm0,24.93a6.63,6.63,0,1,1,6.63-6.62A6.62,6.62,0,0,1,203.33,306Z" transform="translate(-161.38 -257.38)"/><path class="cls-1" d="M292.25,327.67H282.8l-19.43-47.42h13.1l11,29.23,11.15-29.23h13.1Z" transform="translate(-161.38 -257.38)"/><path class="cls-1" d="M356.69,327.67h-25.4a14.89,14.89,0,0,1-14.89-14.89V295.13a14.89,14.89,0,0,1,14.89-14.88h14.08q14.88,0,14.89,14v1.87q0,13-14.89,13h-12V298.78h12c2,0,2.94-.88,2.94-2.67v-1.87c0-1.31-1-2-2.94-2H331.29a2.85,2.85,0,0,0-2.85,2.85v17.65a2.84,2.84,0,0,0,2.85,2.85h25.4Z" transform="translate(-161.38 -257.38)"/><path class="cls-1" d="M382.36,327.67h-12V295.13a14.88,14.88,0,0,1,14.88-14.88h22.66v12H385.21a2.86,2.86,0,0,0-2.85,2.85Z" transform="translate(-161.38 -257.38)"/><path class="cls-1" d="M418.45,262.6h12v9.45h-12Zm0,17.65h12v47.42h-12Z" transform="translate(-161.38 -257.38)"/><path class="cls-1" d="M444.59,327.67V277.39q0-14.64,18.76-14.79h10.86v12H459.87c-2.07,0-3.25.54-3.25,2.76v2.86h17.59v12H456.62v35.39Z" transform="translate(-161.38 -257.38)"/><path class="cls-3" d="M525.86,327.67h-25.4a14.89,14.89,0,0,1-14.88-14.89V295.13a14.88,14.88,0,0,1,14.88-14.88h14.08q14.9,0,14.89,14v1.87q0,13-14.89,13h-12V298.78h12c2,0,3-.88,3-2.67v-1.87c0-1.31-1-2-3-2H500.46a2.86,2.86,0,0,0-2.85,2.85v17.65a2.85,2.85,0,0,0,2.85,2.85h25.4Z" transform="translate(-161.38 -257.38)"/><path class="cls-3" d="M539.5,280.25h12v30.57a2.84,2.84,0,0,0,2.85,2.85h17V280.25h12v47.57q0,14.81-15,14.8H550.2v-12h17.47c2.32,0,3.54-1.22,3.64-3.64,0-.12,0-1.12,0-1.24H554.39a14.89,14.89,0,0,1-14.89-14.89Z" transform="translate(-161.38 -257.38)"/><path class="cls-3" d="M635.05,327.67h-25.4a14.89,14.89,0,0,1-14.89-14.89V295.13a14.89,14.89,0,0,1,14.89-14.88h14.08q14.89,0,14.89,14v1.87q0,13-14.89,13h-12V298.78h12c2,0,2.94-.88,2.94-2.67v-1.87c0-1.31-1-2-2.94-2H609.65a2.85,2.85,0,0,0-2.85,2.85v17.65a2.84,2.84,0,0,0,2.85,2.85h25.4Z" transform="translate(-161.38 -257.38)"/></svg>